<svg width="82" height="98" viewBox="0 0 82 98" fill="none" xmlns="http://www.w3.org/2000/svg">
<path d="M66.2832 0.533325H4.85C2.17606 0.533325 0 2.70938 0 5.38333V86.2167C0 88.8907 2.17606 91.0667 4.85 91.0667V94.3001C4.85 96.0833 6.30007 97.5335 8.0834 97.5335H11.3166C13.0997 97.5335 14.55 96.0834 14.55 94.3001V91.0667H56.5834V94.3001C56.5834 96.0833 58.0335 97.5335 59.8168 97.5335H63.0502C64.8333 97.5335 66.2836 96.0834 66.2836 94.3001V91.0667C68.9575 91.0667 71.1336 88.8907 71.1336 86.2167V5.38333C71.1332 2.70938 68.9572 0.533325 66.2832 0.533325ZM4.85 3.76672H66.2834C67.1757 3.76672 67.9 4.49252 67.9 5.38333V53.8833H3.23321V5.38333C3.23321 4.49252 3.95919 3.76672 4.85 3.76672ZM12.9332 87.8333H11.546L14.1618 68.2183C14.2685 67.4198 14.9571 66.8167 15.764 66.8167H55.3692C56.1759 66.8167 56.8645 67.4198 56.9714 68.2183L59.5872 87.8333H58.2H12.9332ZM11.3166 94.2999H8.08321V91.0665H11.3166V94.2999ZM63.05 94.2999H59.8166V91.0665H63.05V94.2999ZM66.2832 87.8333H64.6666H62.8498L60.1771 67.7915C59.8554 65.3924 57.7893 63.5833 55.3692 63.5833H15.764C13.3422 63.5833 11.2761 65.3924 10.9561 67.7915L8.28327 87.8333H6.4666H4.85C3.95919 87.8333 3.2334 87.109 3.2334 86.2167V57.1167H67.9V86.2167C67.9 87.109 67.1757 87.8333 66.2832 87.8333Z" fill="#434343"/>
<path d="M25.8666 71.8711V71.6665C25.8666 70.7725 25.1423 70.0499 24.25 70.0499C23.3577 70.0499 22.6334 70.7725 22.6334 71.6665V71.8711C19.8471 72.5907 17.7834 75.125 17.7834 78.1333C17.7834 81.6998 20.6837 84.5999 24.25 84.5999C27.8163 84.5999 30.7166 81.6998 30.7166 78.1333C30.7166 75.125 28.6529 72.5907 25.8666 71.8711ZM24.25 81.3667C22.4669 81.3667 21.0166 79.9166 21.0166 78.1333C21.0166 76.9172 21.6918 75.857 22.6864 75.305C22.8664 76.0022 23.4975 76.5167 24.25 76.5167C25.0025 76.5167 25.6336 76.0022 25.8135 75.305C26.8082 75.8569 27.4834 76.9172 27.4834 78.1333C27.4832 79.9165 26.0331 81.3667 24.25 81.3667Z" fill="#434343"/>
<path d="M48.5 71.8711V71.6665C48.5 70.7725 47.7774 70.0499 46.8834 70.0499C45.9894 70.0499 45.2668 70.7725 45.2668 71.6665V71.8711C42.4805 72.5907 40.4168 75.125 40.4168 78.1333C40.4168 81.6998 43.3171 84.5999 46.8834 84.5999C50.4499 84.5999 53.35 81.6996 53.35 78.1333C53.35 75.125 51.2863 72.5907 48.5 71.8711ZM46.8832 81.3667C45.1001 81.3667 43.6498 79.9166 43.6498 78.1333C43.6498 76.9172 44.325 75.857 45.3195 75.305C45.4991 76.002 46.1292 76.5165 46.883 76.5165C47.6369 76.5165 48.267 76.002 48.4466 75.305C49.4412 75.857 50.1162 76.9172 50.1162 78.1333C50.1166 79.9165 48.6665 81.3667 46.8832 81.3667Z" fill="#434343"/>
<path d="M34.8342 47.3658C35.0748 47.3984 35.3188 47.4168 35.5666 47.4168C35.5787 47.4168 35.5908 47.4159 35.603 47.4157C35.6092 47.4159 35.6153 47.4166 35.6215 47.4168C35.6403 47.4162 35.6585 47.4141 35.6772 47.4134C35.8237 47.4104 35.969 47.4018 36.1132 47.3874C43.2061 46.8846 48.7228 40.838 48.5 33.7235C48.5 27.2666 38.0257 13.9548 36.8293 12.4595C36.2149 11.6916 34.9168 11.6931 34.3024 12.4595C33.1077 13.9565 22.6332 27.2681 22.6332 33.675C22.4149 40.7426 27.7803 46.7253 34.8342 47.3658ZM32.3285 39.8409C32.3898 39.1409 33.3178 36.7661 35.5619 32.823C37.6845 36.5592 38.7305 39.0471 38.8 39.7828C38.8 42.0858 37.4172 44.0445 35.7453 44.1758C35.7305 44.1766 35.7157 44.1779 35.7009 44.1785C35.6678 44.1804 35.6344 44.1815 35.6009 44.1821C35.4872 44.1779 35.3747 44.1698 35.262 44.1618C33.6459 43.9413 32.333 41.9947 32.3285 39.8409ZM25.8666 33.722C25.8666 29.7401 32.0212 20.7854 35.5666 16.1036C39.112 20.7856 45.2666 29.7418 45.2666 33.7737C45.3647 36.9256 43.9956 39.7917 41.7987 41.7163C41.9472 41.0582 42.0275 40.364 42.0268 39.6439C41.8021 37.0541 38.3974 31.1953 36.9439 28.796C36.6529 28.3127 36.1291 28.0168 35.5634 28.0168C34.9975 28.0168 34.4738 28.311 34.1811 28.7945C32.7311 31.1824 29.3328 37.0135 29.1 39.6973C29.1 40.3828 29.1762 41.047 29.3171 41.6802C27.1219 39.7498 25.769 36.8845 25.8666 33.722Z" fill="#434343"/>
<g clip-path="url(#clip0)">
<circle cx="64.0499" cy="18.15" r="17.15" fill="white"/>
<path d="M76.1829 6.01852C69.4923 -0.672732 58.6069 -0.672732 51.9175 6.0169C45.2269 12.7065 45.2276 23.5923 51.9182 30.2833C58.6069 36.9726 69.4923 36.9726 76.1823 30.282C82.8722 23.5923 82.8719 12.7072 76.1829 6.01852ZM74.3107 28.4111C68.6531 34.0687 59.4471 34.0694 53.7891 28.4117C48.1302 22.7531 48.1308 13.5461 53.7891 7.88844C59.4467 2.23112 68.6525 2.23047 74.3114 7.88909C79.969 13.5467 79.9684 22.7538 74.3107 28.4111ZM71.8076 24.9322C72.0204 25.4241 71.794 25.9949 71.3024 26.2074C70.8105 26.4208 70.2397 26.1938 70.0269 25.7022C69.0913 23.539 66.8802 22.1409 64.3929 22.1409C61.8483 22.1409 59.6236 23.5377 58.7262 25.6996C58.5713 26.0729 58.21 26.2983 57.83 26.2983C57.7058 26.2983 57.58 26.2743 57.4581 26.2239C56.9633 26.0182 56.7288 25.4503 56.9342 24.9558C58.134 22.0672 61.0621 20.2008 64.3929 20.2008C67.6541 20.2008 70.5647 22.0578 71.8076 24.9322ZM57.6499 13.5063C57.6499 12.399 58.548 11.5009 59.6553 11.5009C60.7623 11.5009 61.6604 12.3986 61.6604 13.5063C61.6604 14.6143 60.7623 15.5121 59.6553 15.5121C58.548 15.5121 57.6499 14.6143 57.6499 13.5063ZM66.7431 13.5063C66.7431 12.399 67.6418 11.5009 68.7492 11.5009C69.8562 11.5009 70.7543 12.3986 70.7543 13.5063C70.7543 14.6143 69.8565 15.5121 68.7492 15.5121C67.6418 15.5121 66.7431 14.6143 66.7431 13.5063Z" fill="#E25750"/>
</g>
<defs>
<clipPath id="clip0">
<rect width="34.3" height="34.3" fill="white" transform="translate(46.8999 1)"/>
</clipPath>
</defs>
</svg>
