<svg width="27" height="26" viewBox="0 0 27 26" fill="none" xmlns="http://www.w3.org/2000/svg">
<path d="M11.3049 4.82797V6.07322H8.39014V20.3829H18.5939V6.07322H15.6791V4.82797H11.3049ZM17.004 18.793H9.97996V7.66309H17.004V18.793Z" fill="#363636"/>
<path d="M15.5912 15.6129H11.3933V17.2028H15.5912V15.6129Z" fill="#363636"/>
<path d="M15.5912 12.433H11.3933V14.0228H15.5912V12.433Z" fill="#363636"/>
<path d="M15.5912 9.25315H11.3933V10.843H15.5912V9.25315Z" fill="#363636"/>
<path d="M26.9996 6.75127L22.935 5.56226L21.7461 9.62683L23.272 10.0732L23.7232 8.53061C24.2381 9.81995 24.506 11.2032 24.506 12.6054C24.506 18.6549 19.5844 23.5766 13.5348 23.5766C11.5404 23.5766 9.58802 23.0363 7.88871 22.0143L7.06934 23.3767C9.01603 24.5476 11.2518 25.1664 13.5349 25.1664C16.8901 25.1664 20.0444 23.8598 22.4168 21.4874C24.7893 19.1148 26.0959 15.9605 26.0959 12.6054C26.0959 10.9761 25.7798 9.36874 25.1726 7.8733L26.5532 8.27713L26.9996 6.75127Z" fill="#363636"/>
<path d="M5.77041 4.76714C7.83979 2.71699 10.5795 1.58988 13.4904 1.58988C13.508 1.58988 13.5256 1.58993 13.5431 1.59004C15.5376 1.59936 17.4874 2.14872 19.1819 3.17869L20.0077 1.82014C18.0665 0.640138 15.8337 0.0108112 13.5505 0.000159002C13.5303 5.30097e-05 13.5105 0 13.4903 0C10.1578 0 7.02063 1.29066 4.6515 3.63775C2.26801 5.99914 0.946719 9.14736 0.931032 12.5024C0.923454 14.1313 1.23231 15.7402 1.83313 17.239L0.453539 16.8285L0 18.3523L4.05896 19.5602L5.26684 15.5013L3.743 15.0478L3.2849 16.5871C2.77587 15.2952 2.51423 13.9112 2.5208 12.5099C2.53453 9.57938 3.68857 6.82964 5.77041 4.76714Z" fill="#363636"/>
</svg>
