<svg width="109" height="66" viewBox="0 0 109 66" fill="none" xmlns="http://www.w3.org/2000/svg">
<path fill-rule="evenodd" clip-rule="evenodd" d="M50.5 0.000109917L0.515625 66H58.9999L108.43 0L50.5 0.000109917Z" fill="#F36C21" fill-opacity="0.4"/>
<path d="M66.7066 16.5513V19.2727H60.3365V50.5459H82.6364V19.2727H76.2663V16.5513H66.7066ZM79.1617 47.0712H63.811V22.7473H79.1617V47.0712Z" fill="#363636"/>
<path d="M76.0739 40.1213H66.8996V43.5959H76.0739V40.1213Z" fill="#363636"/>
<path d="M76.0739 33.1717H66.8996V36.6463H76.0739V33.1717Z" fill="#363636"/>
<path d="M76.0739 26.2223H66.8996V29.6969H76.0739V26.2223Z" fill="#363636"/>
<path d="M101.007 20.7546L92.1237 18.156L89.5254 27.039L92.8602 28.0144L93.8463 24.6432C94.9714 27.461 95.557 30.484 95.557 33.5485C95.557 46.7694 84.801 57.5255 71.58 57.5255C67.2213 57.5255 62.9544 56.3448 59.2406 54.1111L57.45 57.0886C61.7044 59.6475 66.5905 61 71.5801 61C78.9127 61 85.8064 58.1445 90.9912 52.9596C96.1761 47.7746 99.0316 40.881 99.0316 33.5484C99.0316 29.9876 98.3408 26.4749 97.0139 23.2067L100.031 24.0893L101.007 20.7546Z" fill="#363636"/>
<path d="M54.611 16.4184C59.1335 11.9379 65.121 9.4746 71.4827 9.4746C71.521 9.4746 71.5595 9.47472 71.5978 9.47495C75.9566 9.49533 80.218 10.6959 83.9211 12.9469L85.7259 9.97784C81.4835 7.39899 76.6038 6.02363 71.614 6.00035C71.5698 6.00012 71.5266 6 71.4824 6C64.1994 6 57.3433 8.82068 52.1656 13.9501C46.9566 19.1108 44.069 25.9911 44.0347 33.3235C44.0182 36.8833 44.6932 40.3994 46.0062 43.6751L42.9912 42.7779L42 46.1082L50.8707 48.7479L53.5104 39.8773L50.1801 38.8862L49.179 42.2503C48.0665 39.427 47.4947 36.4022 47.5091 33.3398C47.5391 26.9353 50.0612 20.9259 54.611 16.4184Z" fill="#363636"/>
</svg>
