<svg width="78" height="112" viewBox="0 0 78 112" fill="none" xmlns="http://www.w3.org/2000/svg">
<path d="M59.8667 5.6C59.8667 2.50742 57.3593 0 54.2667 0H5.73336C2.64078 0 0.133362 2.50742 0.133362 5.6V106.4C0.133362 109.493 2.64078 112 5.73336 112H54.2667C57.3593 112 59.8667 109.493 59.8667 106.4V5.6ZM56.1333 100.8H44.9333V63.4667H56.1333V100.8ZM3.86669 100.8V63.4667H15.0667V100.8H3.86669ZM18.8 63.4667H41.2V100.8H18.8V63.4667ZM3.86669 59.7333V48.5333H7.60003C9.97255 48.5306 12.0871 47.0358 12.881 44.8H47.119C47.9129 47.0358 50.0275 48.5306 52.4 48.5333H56.1333V59.7333H3.86669ZM5.73336 3.73333H54.2667C55.2975 3.73333 56.1333 4.56914 56.1333 5.6V44.8H52.4C51.3692 44.8 50.5333 43.9642 50.5333 42.9333C50.5333 41.9025 49.6975 41.0667 48.6667 41.0667H11.3334C10.3025 41.0667 9.46669 41.9025 9.46669 42.9333C9.46669 43.9642 8.63089 44.8 7.60003 44.8H3.86669V5.6C3.86669 4.56914 4.7025 3.73333 5.73336 3.73333ZM54.2667 108.267H5.73336C4.7025 108.267 3.86669 107.431 3.86669 106.4V104.533H56.1333V106.4C56.1333 107.431 55.2975 108.267 54.2667 108.267Z" fill="#434343"/>
<path d="M30 67.2C25.8766 67.2 22.5333 70.5432 22.5333 74.6666C22.5333 78.7901 25.8766 82.1333 30 82.1333C34.1234 82.1333 37.4667 78.7901 37.4667 74.6666C37.4667 70.5432 34.1234 67.2 30 67.2ZM30 78.4C27.9383 78.4 26.2667 76.7283 26.2667 74.6666C26.2667 72.6049 27.9383 70.9333 30 70.9333C32.0617 70.9333 33.7333 72.6049 33.7333 74.6666C33.7333 76.7283 32.0617 78.4 30 78.4Z" fill="#434343"/>
<path d="M30 85.8667C26.9074 85.8667 24.4 88.3741 24.4 91.4667C24.4 94.5593 26.9074 97.0667 30 97.0667C33.0926 97.0667 35.6 94.5593 35.6 91.4667C35.6 88.3741 33.0926 85.8667 30 85.8667ZM30 93.3334C28.9692 93.3334 28.1334 92.4976 28.1334 91.4667C28.1334 90.4358 28.9692 89.6 30 89.6C31.0309 89.6 31.8667 90.4358 31.8667 91.4667C31.8667 92.4976 31.0309 93.3334 30 93.3334Z" fill="#434343"/>
<path d="M39.3333 52.2667H46.8V56.0001H39.3333V52.2667Z" fill="#434343"/>
<path d="M13.2 52.2667H20.6667V56.0001H13.2V52.2667Z" fill="#434343"/>
<path d="M24.9414 52.8081C24.6005 53.1654 24.4073 53.6393 24.4 54.1333C24.4028 54.3776 24.4538 54.6182 24.5495 54.8424C24.6443 55.0685 24.7774 55.2772 24.9414 55.4586C25.6779 56.1805 26.8555 56.1805 27.5919 55.4586C27.7624 55.2772 27.9009 55.0694 28.003 54.8424C28.0923 54.6173 28.137 54.3758 28.1334 54.1333C28.1379 53.375 27.6831 52.6896 26.9822 52.3988C26.2822 52.1081 25.4755 52.2694 24.9414 52.8081Z" fill="#434343"/>
<path d="M32.4081 52.8081C32.0672 53.1654 31.874 53.6393 31.8667 54.1333C31.8603 54.3785 31.9113 54.621 32.0162 54.8424C32.111 55.0685 32.244 55.2772 32.4081 55.4586C33.1445 56.1805 34.3222 56.1805 35.0586 55.4586C35.2227 55.2772 35.3557 55.0685 35.4505 54.8424C35.5554 54.621 35.6064 54.3785 35.6 54.1333C35.6046 53.375 35.1498 52.6896 34.4488 52.3988C33.7488 52.1081 32.9422 52.2694 32.4081 52.8081Z" fill="#434343"/>
<path d="M9.46664 37.3333H50.5333C51.5642 37.3333 52.4 36.4975 52.4 35.4667V9.33334C52.4 8.30248 51.5642 7.46667 50.5333 7.46667H9.46664C8.43578 7.46667 7.59998 8.30248 7.59998 9.33334V35.4667C7.59998 36.4975 8.43578 37.3333 9.46664 37.3333ZM48.6666 33.6H11.3333V24.2667H48.6666V33.6ZM11.3333 11.2H48.6666V20.5333H11.3333V11.2Z" fill="#434343"/>
<g clip-path="url(#clip0)">
<circle cx="59.9833" cy="20.15" r="17.15" fill="white"/>
<path d="M72.1163 8.01852C65.4257 1.32727 54.5402 1.32727 47.8509 8.0169C41.1603 14.7065 41.161 25.5923 47.8516 32.2833C54.5402 38.9726 65.4257 38.9726 72.1157 32.282C78.8056 25.5923 78.8053 14.7072 72.1163 8.01852ZM70.2441 30.4111C64.5865 36.0687 55.3805 36.0694 49.7225 30.4117C44.0635 24.7531 44.0642 15.5461 49.7225 9.88844C55.3801 4.23112 64.5859 4.23047 70.2448 9.88909C75.9024 15.5467 75.9018 24.7538 70.2441 30.4111ZM67.741 26.9322C67.9538 27.4241 67.7274 27.9949 67.2358 28.2074C66.7439 28.4208 66.1731 28.1938 65.9603 27.7022C65.0247 25.539 62.8136 24.1409 60.3263 24.1409C57.7817 24.1409 55.557 25.5377 54.6596 27.6996C54.5047 28.0729 54.1434 28.2983 53.7634 28.2983C53.6392 28.2983 53.5134 28.2743 53.3915 28.2239C52.8967 28.0182 52.6622 27.4503 52.8676 26.9558C54.0674 24.0672 56.9955 22.2008 60.3263 22.2008C63.5875 22.2008 66.4981 24.0578 67.741 26.9322ZM53.5833 15.5063C53.5833 14.399 54.4814 13.5009 55.5887 13.5009C56.6957 13.5009 57.5938 14.3986 57.5938 15.5063C57.5938 16.6143 56.6957 17.5121 55.5887 17.5121C54.4814 17.5121 53.5833 16.6143 53.5833 15.5063ZM62.6765 15.5063C62.6765 14.399 63.5752 13.5009 64.6825 13.5009C65.7896 13.5009 66.6877 14.3986 66.6877 15.5063C66.6877 16.6143 65.7899 17.5121 64.6825 17.5121C63.5752 17.5121 62.6765 16.6143 62.6765 15.5063Z" fill="#E25750"/>
</g>
<defs>
<clipPath id="clip0">
<rect width="34.3" height="34.3" fill="white" transform="translate(42.8333 3)"/>
</clipPath>
</defs>
</svg>
