<svg width="95" height="101" viewBox="0 0 95 101" fill="none" xmlns="http://www.w3.org/2000/svg">
<path d="M47.4933 72.8822L47.4932 72.8821C46.9512 72.4815 46.2746 72.3525 45.6282 72.5199L45.6278 72.52C44.9786 72.6879 44.4508 73.1304 44.1718 73.7418C44.1717 73.7419 44.1717 73.742 44.1716 73.7421L35.6768 92.3723C35.384 93.0145 34.6833 93.3656 33.9936 93.2158C33.304 93.066 32.812 92.4557 32.812 91.75V70.736C32.812 69.9237 32.3693 69.1802 31.6558 68.7935C30.9427 68.4073 30.0791 68.442 29.3981 68.8853L47.4933 72.8822ZM47.4933 72.8822L83.1084 99.2063C83.6952 99.64 84.509 99.5885 85.0365 99.0843C85.5639 98.5801 85.6521 97.7695 85.2453 97.1637L60.4974 60.3113L60.497 60.3108C59.7276 59.1662 60.1856 57.5995 61.4551 57.0508M47.4933 72.8822L61.4551 57.0508M61.4551 57.0508L78.9014 49.5214C79.5423 49.2448 79.9077 48.5626 79.7828 47.8758C79.6579 47.189 79.0758 46.6791 78.3785 46.6459L63.3779 45.9308C61.5469 45.8431 60.6128 43.6878 61.8023 42.2912L61.8026 42.2909L79.1192 21.9504C79.5882 21.3995 79.5971 20.5924 79.1405 20.0312C78.6838 19.4701 77.8917 19.3149 77.257 19.6621L53.3364 32.7505C53.3363 32.7505 53.3363 32.7505 53.3363 32.7505C52.5691 33.1702 51.6246 33.0969 50.9311 32.5636L50.9309 32.5635C50.2376 32.0305 49.9237 31.1357 50.1323 30.2856L51.1451 26.16C51.3153 25.4665 50.9731 24.7492 50.327 24.4452C49.6808 24.1412 48.91 24.3348 48.4842 24.908L45.8795 28.4148C45.8794 28.4148 45.8794 28.4148 45.8794 28.4149C44.8597 29.7872 42.7233 29.524 42.068 27.9446C42.068 27.9446 42.068 27.9445 42.068 27.9445L33.9713 8.42527C33.6929 7.75424 32.9737 7.37913 32.2642 7.53488C31.5546 7.69063 31.0586 8.33247 31.0869 9.05839L31.862 28.9544C31.862 28.9544 31.862 28.9544 31.862 28.9544C31.8951 29.8077 31.4228 30.616 30.6637 31.0056C29.904 31.3955 28.9722 31.3078 28.2994 30.7838L27.3776 31.9672L28.2993 30.7838L23.7669 27.2535C23.2117 26.8211 22.4306 26.8327 21.8886 27.2814C21.3466 27.7301 21.1893 28.4953 21.5104 29.1214L23.9682 33.9136L23.9682 33.9137C24.8017 35.5384 23.4126 37.4166 21.6174 37.0973C21.6173 37.0972 21.6172 37.0972 21.6171 37.0972L3.26321 33.8258C2.55627 33.6998 1.85919 34.0925 1.60062 34.7624C1.34205 35.4323 1.59453 36.1915 2.2028 36.5732L18.022 46.4983L18.0225 46.4986C18.7347 46.9451 19.1256 47.7355 19.0473 48.5748L19.0472 48.5753C18.9692 49.4139 18.4391 50.1187 17.6558 50.4262L17.6555 50.4263L12.1815 52.5768C11.504 52.8429 11.1154 53.5571 11.2598 54.2705C11.4042 54.984 12.04 55.4907 12.7677 55.4724L19.0215 55.315C19.0223 55.315 19.0231 55.315 19.0239 55.315C19.8599 55.2966 20.6246 55.7384 21.0214 56.4718L21.0215 56.4719C21.4203 57.2088 21.3731 58.0874 20.8975 58.7775L20.8973 58.7777L5.62613 80.9438C5.21963 81.5338 5.28718 82.3289 5.78737 82.8419C6.28757 83.3549 7.08074 83.4426 7.68086 83.0511L29.3973 68.8858L61.4551 57.0508Z" stroke="#434343" stroke-width="3" stroke-linejoin="round"/>
<path d="M54.7045 53.5591L54.7052 53.5588L60.4462 51.1399L56.8789 50.9738L56.8786 50.9738C53.6024 50.8206 51.7978 46.9881 54.0216 44.4388C54.0217 44.4387 54.0218 44.4386 54.0219 44.4385L60.4086 37.1142L51.3746 41.9401L51.3746 41.9402C49.9873 42.6812 48.2837 42.554 47.0245 41.6087C46.3358 41.0919 45.848 40.3799 45.6089 39.5897C43.6583 40.4792 41.1381 39.7193 40.2064 37.5264L40.2063 37.5263L37.9148 32.1329L38.1142 37.1297L38.1142 37.1298C38.1762 38.6847 37.3033 40.1212 35.921 40.8137C34.9845 41.283 33.9116 41.3634 32.9347 41.073C33.0137 43.4608 30.7918 45.5325 28.2059 45.0831L28.2056 45.083L23.4832 44.2613L27.5245 46.7368C28.8127 47.5252 29.548 48.9569 29.4036 50.4696L54.7045 53.5591ZM54.7045 53.5591C52.4042 54.5298 51.5303 57.3426 52.96 59.4198C52.9602 59.42 52.9603 59.4202 52.9604 59.4204L64.8589 76.7188L47.6947 64.3329C46.7151 63.6258 45.4825 63.3986 44.3225 63.6917C43.1563 63.9863 42.182 64.7765 41.6705 65.8711L41.6703 65.8714L38.7612 72.1003M54.7045 53.5591L38.7612 72.1003M38.7612 72.1003V64.9261C38.7612 63.4546 37.9376 62.1225 36.6445 61.4383L36.6443 61.4382C35.3552 60.7564 33.7938 60.818 32.5632 61.6007L32.5624 61.6011L24.2353 66.9041L30.2167 58.428C31.0878 57.1939 31.1775 55.592 30.4445 54.2697L38.7612 72.1003ZM28.5591 52.5532C29.0276 51.9689 29.329 51.2522 29.4036 50.4701L28.5591 52.5532ZM28.5591 52.5532C29.3418 52.8975 30.011 53.4876 30.4444 54.2696L28.5591 52.5532Z" stroke="#434343" stroke-width="3" stroke-linejoin="round"/>
<g clip-path="url(#clip0)">
<circle cx="80.5" cy="14.5" r="14.5" fill="white"/>
<path d="M90.7582 4.24304C85.1015 -1.41428 75.898 -1.41428 70.2423 4.24167C64.5855 9.89763 64.5861 19.1014 70.2429 24.7584C75.898 30.4141 85.1015 30.4141 90.7577 24.7573C96.4139 19.1014 96.4136 9.89818 90.7582 4.24304ZM89.1753 23.1755C84.3919 27.959 76.6084 27.9595 71.8247 23.1761C67.0401 18.3918 67.0407 10.6075 71.8247 5.82403C76.6081 1.04087 84.3914 1.04032 89.1759 5.82458C93.9593 10.608 93.9588 18.3924 89.1753 23.1755ZM87.059 20.2342C87.2389 20.6501 87.0475 21.1327 86.6319 21.3124C86.216 21.4928 85.7334 21.3009 85.5534 20.8853C84.7624 19.0563 82.8929 17.8742 80.79 17.8742C78.6386 17.8742 76.7577 19.0552 75.9989 20.8831C75.8679 21.1986 75.5625 21.3892 75.2412 21.3892C75.1362 21.3892 75.0298 21.369 74.9268 21.3263C74.5084 21.1524 74.3102 20.6722 74.4838 20.2542C75.4982 17.8119 77.9739 16.2339 80.79 16.2339C83.5473 16.2339 86.0082 17.8039 87.059 20.2342ZM75.0889 10.5738C75.0889 9.6376 75.8482 8.87827 76.7845 8.87827C77.7204 8.87827 78.4797 9.63732 78.4797 10.5738C78.4797 11.5106 77.7204 12.2697 76.7845 12.2697C75.8482 12.2697 75.0889 11.5106 75.0889 10.5738ZM82.777 10.5738C82.777 9.6376 83.5369 8.87827 84.4731 8.87827C85.4091 8.87827 86.1684 9.63732 86.1684 10.5738C86.1684 11.5106 85.4093 12.2697 84.4731 12.2697C83.5369 12.2697 82.777 11.5106 82.777 10.5738Z" fill="#E25750"/>
</g>
<defs>
<clipPath id="clip0">
<rect width="29" height="29" fill="white" transform="translate(66)"/>
</clipPath>
</defs>
</svg>
