<svg width="90" height="97" viewBox="0 0 90 97" fill="none" xmlns="http://www.w3.org/2000/svg">
<g clip-path="url(#clip0)">
<path d="M84 97.0001C83.3589 96.9986 82.735 96.7919 82.22 96.4101L46.6 70.0901C46.5131 70.031 46.4141 69.9923 46.3103 69.9767C46.2064 69.9611 46.1004 69.9691 46 70.0001C45.8993 70.0245 45.806 70.0727 45.7277 70.1405C45.6494 70.2083 45.5885 70.2939 45.55 70.3901L37 89.0001C36.7161 89.6232 36.2275 90.1305 35.6155 90.4376C35.0034 90.7447 34.3048 90.8332 33.6355 90.6884C32.9662 90.5435 32.3666 90.1741 31.9363 89.6414C31.506 89.1087 31.2709 88.4448 31.27 87.7601V66.7601C31.2704 66.6341 31.2373 66.5102 31.174 66.4013C31.1107 66.2923 31.0196 66.2022 30.91 66.1401H30.72C30.4883 66.143 30.2587 66.1835 30.04 66.2601L8.5 80.3101C7.9176 80.6925 7.22024 80.8603 6.52762 80.7847C5.835 80.709 5.1903 80.3946 4.70417 79.8955C4.21805 79.3964 3.92082 78.7436 3.86349 78.0492C3.80616 77.3548 3.99232 76.6622 4.39 76.0901L19.66 53.9301C19.7303 53.8194 19.7676 53.6911 19.7676 53.5601C19.7676 53.429 19.7303 53.3007 19.66 53.1901C19.6035 53.0707 19.5121 52.9713 19.3977 52.9052C19.2834 52.8391 19.1516 52.8094 19.02 52.8201L12.81 53.0001C12.1082 53.0142 11.4236 52.7818 10.8754 52.3433C10.3273 51.9048 9.95025 51.2879 9.81 50.6001C9.6692 49.9088 9.77647 49.1901 10.113 48.5702C10.4495 47.9502 10.9937 47.4686 11.65 47.2101L17.11 45.0001C17.2329 44.9554 17.3401 44.8757 17.4183 44.7709C17.4965 44.666 17.5422 44.5406 17.55 44.4101C17.5661 44.2795 17.5445 44.1471 17.4878 44.0284C17.4311 43.9096 17.3417 43.8096 17.23 43.7401L1.41 33.8401C0.823475 33.4686 0.383926 32.9053 0.166281 32.246C-0.0513635 31.5868 -0.0336309 30.8725 0.216456 30.2248C0.466543 29.5772 0.933504 29.0364 1.53773 28.6945C2.14197 28.3526 2.84606 28.2309 3.53 28.3501L21.88 31.6201C22.0067 31.6391 22.1363 31.6235 22.2548 31.5749C22.3734 31.5263 22.4766 31.4465 22.5535 31.3439C22.6304 31.2414 22.6781 31.12 22.6916 30.9925C22.705 30.8651 22.6838 30.7364 22.63 30.6201L20.18 25.8301C19.8674 25.2224 19.7717 24.5263 19.9085 23.8568C20.0454 23.1874 20.4067 22.5847 20.9327 22.1485C21.4587 21.7123 22.1178 21.4688 22.8011 21.4581C23.4843 21.4475 24.1507 21.6704 24.69 22.0901L29.22 25.6201C29.329 25.7037 29.4598 25.7539 29.5968 25.7646C29.7337 25.7754 29.8708 25.7462 29.9915 25.6805C30.1122 25.6149 30.2112 25.5157 30.2766 25.3949C30.342 25.2741 30.371 25.137 30.36 25.0001L29.59 5.12006C29.5608 4.41572 29.7806 3.7236 30.2108 3.16513C30.641 2.60666 31.2541 2.21752 31.9426 2.06598C32.631 1.91445 33.3509 2.0102 33.9758 2.33644C34.6007 2.66267 35.0908 3.19856 35.36 3.85006L43.45 23.3701C43.5002 23.4846 43.5794 23.5841 43.6797 23.6587C43.7801 23.7333 43.8981 23.7805 44.0222 23.7957C44.1464 23.8108 44.2723 23.7933 44.3876 23.745C44.503 23.6967 44.6037 23.6192 44.68 23.5201L47.28 20.0001C47.6934 19.4438 48.2867 19.0479 48.959 18.8795C49.6312 18.7111 50.3411 18.7807 50.9679 19.0764C51.5947 19.3722 52.0997 19.8758 52.3973 20.5017C52.6948 21.1277 52.7664 21.8373 52.6 22.5101L51.6 26.6301L50.14 26.2801L51.6 26.6301C51.5656 26.7628 51.5709 26.9028 51.6153 27.0326C51.6598 27.1624 51.7414 27.2763 51.85 27.3601C51.9594 27.4458 52.0912 27.498 52.2297 27.5104C52.3681 27.5228 52.5071 27.4949 52.63 27.4301L53.35 28.7401L52.63 27.4201L76.54 14.3501C77.1543 14.0194 77.8646 13.9132 78.5487 14.0497C79.2329 14.1862 79.8481 14.5568 80.2885 15.0978C80.7289 15.6389 80.967 16.3165 80.9618 17.0141C80.9566 17.7117 80.7084 18.3857 80.26 18.9201L63 39.2601C62.911 39.3609 62.8525 39.4849 62.8313 39.6177C62.81 39.7504 62.8269 39.8865 62.88 40.0101C62.9339 40.1309 63.0206 40.2342 63.1301 40.3084C63.2397 40.3827 63.3678 40.4248 63.5 40.4301L78.5 41.1501C79.1733 41.1918 79.8129 41.4593 80.3155 41.9093C80.8181 42.3593 81.1544 42.9656 81.27 43.6303C81.3856 44.2949 81.2737 44.9791 80.9526 45.5724C80.6314 46.1657 80.1197 46.6334 79.5 46.9001L62.05 54.4301C61.9537 54.47 61.8676 54.5312 61.7983 54.6091C61.729 54.6871 61.6783 54.7797 61.65 54.8801C61.6213 54.979 61.6145 55.0831 61.63 55.185C61.6455 55.2869 61.6831 55.3841 61.74 55.4701L86.49 92.3301C86.7925 92.7815 86.9667 93.3066 86.994 93.8493C87.0213 94.3921 86.9007 94.932 86.645 95.4115C86.3893 95.891 86.0082 96.2921 85.5424 96.5719C85.0765 96.8517 84.5434 96.9997 84 97.0001ZM46.17 67.0001C46.9942 66.9978 47.7959 67.2685 48.45 67.7701L84 94.0001L59.25 57.1501C58.943 56.6928 58.7407 56.1733 58.6578 55.6287C58.5748 55.0842 58.6131 54.5281 58.77 54.0001C58.9224 53.4767 59.1889 52.9937 59.5503 52.5856C59.9117 52.1776 60.359 51.8547 60.86 51.6401L78.31 44.1101L63.31 43.4001L63.38 41.9001L63.31 43.4001C62.6173 43.3672 61.9477 43.1409 61.3772 42.7468C60.8066 42.3527 60.3579 41.8066 60.082 41.1704C59.806 40.5343 59.7139 39.8335 59.8161 39.1476C59.9183 38.4617 60.2106 37.8182 60.66 37.2901L78 17.0001L54.06 30.0701C53.4285 30.4145 52.7105 30.568 51.9934 30.5118C51.2762 30.4555 50.5909 30.192 50.0208 29.7533C49.4507 29.3147 49.0205 28.7197 48.7824 28.0409C48.5444 27.3621 48.5088 26.6287 48.68 25.9301L49.68 21.8001L47.07 25.3101C46.6769 25.8326 46.153 26.2423 45.5511 26.4978C44.9492 26.7534 44.2905 26.8458 43.6416 26.7657C42.9926 26.6855 42.3762 26.4358 41.8545 26.0415C41.3328 25.6473 40.9242 25.1225 40.67 24.5201L32.59 5.00006L33.36 24.9001C33.3894 25.6087 33.215 26.3109 32.8575 26.9235C32.5001 27.5361 31.9745 28.0334 31.3431 28.3564C30.7117 28.6795 30.0009 28.8148 29.295 28.7463C28.5891 28.6778 27.9175 28.4085 27.36 27.9701L28.28 26.7801L27.38 28.0001L22.85 24.4701L25.3 29.2601C25.6137 29.8747 25.7498 30.5646 25.6929 31.2523C25.6361 31.94 25.3886 32.5982 24.9782 33.1529C24.5679 33.7077 24.0109 34.137 23.37 34.3927C22.729 34.6483 22.0295 34.7201 21.35 34.6001L3 31.3001L18.82 41.2301C19.4 41.5959 19.8672 42.1152 20.1698 42.7305C20.4725 43.3458 20.5987 44.0329 20.5345 44.7155C20.4702 45.3982 20.2181 46.0497 19.806 46.5977C19.3939 47.1457 18.838 47.5689 18.2 47.8201L12.73 50.0001L19 49.8201C19.6836 49.803 20.3585 49.9753 20.9504 50.3177C21.5422 50.6602 22.0279 51.1595 22.3538 51.7606C22.6797 52.3618 22.8332 53.0412 22.7972 53.7241C22.7612 54.4069 22.5373 55.0665 22.15 55.6301L6.86 77.7901L28.58 63.6301C28.6634 63.5716 28.7542 63.5246 28.85 63.4901C29.4008 63.2382 29.9993 63.1078 30.605 63.1078C31.2106 63.1078 31.8092 63.2382 32.36 63.4901C32.9602 63.8005 33.4639 64.2694 33.8165 64.8459C34.169 65.4223 34.357 66.0843 34.36 66.7601V87.7601L42.86 69.1301C43.0877 68.6277 43.425 68.1828 43.8473 67.8281C44.2695 67.4733 44.7659 67.2177 45.3 67.0801L45.68 68.5301L45.34 67.0701C45.6135 67.0179 45.8917 66.9944 46.17 67.0001Z" fill="#434343"/>
<path d="M63.56 73.29C63.2477 73.2908 62.9432 73.1928 62.69 73.01L45.52 60.62C45.2149 60.4034 44.8665 60.2556 44.4988 60.1865C44.1311 60.1175 43.7529 60.1289 43.39 60.22C43.0303 60.3105 42.6949 60.4794 42.408 60.7145C42.121 60.9496 41.8895 61.2451 41.73 61.58L38.83 67.81C38.684 68.1193 38.4372 68.3699 38.1302 68.5207C37.8232 68.6714 37.4741 68.7135 37.14 68.64C36.8114 68.5606 36.5196 68.3719 36.3124 68.1048C36.1053 67.8376 35.9951 67.508 36 67.17V60C35.9964 59.5541 35.8717 59.1176 35.6391 58.7372C35.4066 58.3567 35.0751 58.0466 34.68 57.84C34.2788 57.6296 33.8294 57.528 33.3766 57.5456C32.9239 57.5631 32.4837 57.6991 32.1 57.94L23.78 63.24C23.487 63.4098 23.1451 63.4754 22.81 63.4262C22.4749 63.3769 22.1664 63.2158 21.9345 62.9689C21.7027 62.722 21.5613 62.4039 21.5332 62.0664C21.5051 61.7289 21.5921 61.3918 21.78 61.11L27.78 52.64C28.0438 52.2686 28.197 51.8301 28.2218 51.3753C28.2466 50.9204 28.1419 50.4678 27.92 50.07C27.636 49.5787 27.1908 49.2007 26.66 49C26.4508 48.9062 26.2656 48.7659 26.1187 48.5899C25.9717 48.4138 25.8668 48.2066 25.8119 47.984C25.7569 47.7613 25.7534 47.5291 25.8016 47.3049C25.8498 47.0807 25.9484 46.8704 26.09 46.69C26.3874 46.3201 26.5715 45.8721 26.62 45.4L28.92 45.62L26.62 45.4C26.6602 44.9441 26.5719 44.4861 26.3651 44.0778C26.1583 43.6695 25.8413 43.3273 25.45 43.09L21.4 40.61C21.1043 40.4281 20.8809 40.1492 20.7678 39.821C20.6548 39.4927 20.6591 39.1354 20.78 38.81C20.8957 38.4731 21.1268 38.188 21.4324 38.005C21.738 37.822 22.0984 37.7529 22.45 37.81L27.17 38.63C27.5434 38.7006 27.928 38.6841 28.294 38.5818C28.66 38.4794 28.9974 38.294 29.28 38.04C29.5552 37.809 29.7752 37.5194 29.924 37.1924C30.0728 36.8654 30.1466 36.5092 30.14 36.15C30.1315 35.9118 30.18 35.6751 30.2812 35.4593C30.3825 35.2436 30.5338 35.0551 30.7224 34.9094C30.9111 34.7638 31.1317 34.6652 31.366 34.6218C31.6004 34.5784 31.8417 34.5915 32.07 34.66C32.7028 34.8781 33.396 34.8386 34 34.55C34.4245 34.3406 34.7795 34.0131 35.0225 33.6069C35.2655 33.2007 35.3862 32.7331 35.37 32.26L35.17 27.26C35.1815 26.9288 35.3023 26.6107 35.5137 26.3554C35.725 26.1001 36.015 25.9219 36.3382 25.8488C36.6615 25.7757 36.9999 25.8117 37.3005 25.9513C37.6012 26.0908 37.8471 26.3259 38 26.62L40.29 32C40.4162 32.3058 40.6038 32.5825 40.8411 32.813C41.0785 33.0435 41.3606 33.2228 41.67 33.34C41.9899 33.4652 42.3316 33.5253 42.675 33.5168C43.0185 33.5082 43.3567 33.4311 43.67 33.29C43.8649 33.2026 44.0762 33.1575 44.2898 33.1578C44.5034 33.158 44.7145 33.2036 44.9092 33.2915C45.1039 33.3794 45.2778 33.5076 45.4193 33.6677C45.5607 33.8277 45.6666 34.016 45.73 34.22C45.8831 34.7196 46.1914 35.1574 46.61 35.47L45.7 36.68L46.61 35.47C46.999 35.763 47.4637 35.9385 47.9493 35.9757C48.4348 36.0129 48.9209 35.9103 49.35 35.68L58.35 30.86C58.6583 30.689 59.0173 30.6328 59.3631 30.7016C59.7089 30.7703 60.0192 30.9594 60.2387 31.2353C60.4582 31.5112 60.5728 31.856 60.562 32.2084C60.5513 32.5608 60.4159 32.898 60.18 33.16L53.86 40.5C53.5572 40.8323 53.3566 41.2448 53.2821 41.6882C53.2076 42.1316 53.2625 42.587 53.44 43C53.6274 43.4369 53.9341 43.8122 54.325 44.0828C54.7159 44.3534 55.1751 44.5084 55.65 44.53L59.22 44.7C59.5594 44.7167 59.8831 44.8481 60.1381 45.0728C60.393 45.2974 60.5641 45.602 60.6234 45.9366C60.6827 46.2713 60.6265 46.6161 60.4642 46.9146C60.3019 47.2132 60.043 47.4478 59.73 47.58L54 50C53.6615 50.1452 53.3589 50.3627 53.1136 50.6375C52.8683 50.9122 52.6861 51.2373 52.58 51.59C52.4823 51.9269 52.4612 52.2813 52.5183 52.6274C52.5754 52.9735 52.7092 53.3024 52.91 53.59L64.81 70.89C64.9651 71.1155 65.0555 71.3791 65.0715 71.6524C65.0875 71.9256 65.0284 72.198 64.9007 72.44C64.773 72.6821 64.5815 72.8846 64.3469 73.0256C64.1124 73.1666 63.8437 73.2407 63.57 73.24L63.56 73.29ZM44 57.14C45.1613 57.1251 46.298 57.4748 47.25 58.14L57.39 65.46L50.39 55.29C49.9314 54.6308 49.6269 53.877 49.4988 53.0842C49.3707 52.2915 49.4224 51.4801 49.65 50.71C49.8783 49.9277 50.2788 49.2064 50.8221 48.599C51.3654 47.9917 52.0378 47.5136 52.79 47.2L53.34 46.97C52.126 46.391 51.1656 45.388 50.64 44.15C50.242 43.2145 50.1171 42.1854 50.28 41.1819C50.4428 40.1784 50.8866 39.2416 51.56 38.48L52.56 37.31L50.74 38.31C49.5095 38.9632 48.0792 39.1325 46.7302 38.7846C45.3812 38.4368 44.2111 37.5968 43.45 36.43C42.4663 36.5825 41.4598 36.4757 40.53 36.12C39.4956 35.7296 38.6057 35.0316 37.98 34.12C37.5118 35.4763 36.5321 36.5959 35.25 37.24C34.5055 37.6075 33.69 37.8088 32.86 37.83C32.5456 38.8394 31.9494 39.738 31.1415 40.4201C30.3337 41.1021 29.3478 41.5392 28.3 41.68C28.7639 42.2301 29.1134 42.8672 29.328 43.554C29.5427 44.2409 29.6181 44.9636 29.55 45.68C29.5033 46.1733 29.3889 46.6579 29.21 47.12C29.695 47.5417 30.1013 48.0462 30.41 48.61L29.23 49.26L30.41 48.61C30.9096 49.499 31.1458 50.5118 31.0909 51.5301C31.036 52.5483 30.6923 53.5299 30.1 54.36L28.5 56.62L30.41 55.4C31.2392 54.8726 32.1934 54.5744 33.1753 54.5357C34.1573 54.4971 35.1319 54.7194 36 55.18C36.8961 55.6284 37.6506 56.316 38.1801 57.1667C38.7096 58.0174 38.9934 58.998 39 60V60.42L39.05 60.31C39.3945 59.5701 39.9002 58.9166 40.53 58.3975C41.1599 57.8784 41.8979 57.5068 42.69 57.31C43.1187 57.2035 43.5583 57.1464 44 57.14Z" fill="#434343"/>
</g>
<g clip-path="url(#clip1)">
<circle cx="75.5" cy="14.5" r="14.5" fill="white"/>
<path d="M85.7582 4.24304C80.1015 -1.41428 70.898 -1.41428 65.2423 4.24167C59.5855 9.89763 59.5861 19.1014 65.2429 24.7584C70.898 30.4141 80.1015 30.4141 85.7577 24.7573C91.4139 19.1014 91.4136 9.89818 85.7582 4.24304ZM84.1753 23.1755C79.3919 27.959 71.6084 27.9595 66.8247 23.1761C62.0401 18.3918 62.0407 10.6075 66.8247 5.82403C71.6081 1.04087 79.3914 1.04032 84.1759 5.82458C88.9593 10.608 88.9588 18.3924 84.1753 23.1755ZM82.059 20.2342C82.2389 20.6501 82.0475 21.1327 81.6319 21.3124C81.216 21.4928 80.7334 21.3009 80.5534 20.8853C79.7624 19.0563 77.8929 17.8742 75.79 17.8742C73.6386 17.8742 71.7577 19.0552 70.9989 20.8831C70.8679 21.1986 70.5625 21.3892 70.2412 21.3892C70.1362 21.3892 70.0298 21.369 69.9268 21.3263C69.5084 21.1524 69.3102 20.6722 69.4838 20.2542C70.4982 17.8119 72.9739 16.2339 75.79 16.2339C78.5473 16.2339 81.0082 17.8039 82.059 20.2342ZM70.0889 10.5738C70.0889 9.6376 70.8482 8.87827 71.7845 8.87827C72.7204 8.87827 73.4797 9.63732 73.4797 10.5738C73.4797 11.5106 72.7204 12.2697 71.7845 12.2697C70.8482 12.2697 70.0889 11.5106 70.0889 10.5738ZM77.777 10.5738C77.777 9.6376 78.5369 8.87827 79.4731 8.87827C80.4091 8.87827 81.1684 9.63732 81.1684 10.5738C81.1684 11.5106 80.4093 12.2697 79.4731 12.2697C78.5369 12.2697 77.777 11.5106 77.777 10.5738Z" fill="#E25750"/>
</g>
<defs>
<clipPath id="clip0">
<rect width="87" height="95" fill="white" transform="translate(0 2)"/>
</clipPath>
<clipPath id="clip1">
<rect width="29" height="29" fill="white" transform="translate(61)"/>
</clipPath>
</defs>
</svg>
