<svg width="24" height="26" viewBox="0 0 24 26" fill="none" xmlns="http://www.w3.org/2000/svg">
<path d="M19.6551 6.59637C17.7379 6.59637 16.1783 8.15603 16.1783 10.0732V20.0734C16.1783 22.4796 14.2206 24.4372 11.8144 24.4372C9.53705 24.4372 7.66194 22.6837 7.46763 20.4558H9.45622V17.2833C11.7739 16.408 13.4265 14.1667 13.4265 11.5464V5.41843H12.1558V0.745422H7.91922V5.41843H5.43929V0.745422H1.20272V5.41843H0V11.5464C0 14.1667 1.65277 16.4078 3.97027 17.2833V20.4558H5.98881C6.18638 23.4976 8.72353 25.9118 11.8144 25.9118C15.0338 25.9118 17.6527 23.2927 17.6527 20.0734V10.0732C17.6527 8.96916 18.5509 8.07097 19.6549 8.07097C20.7591 8.07097 21.6573 8.96916 21.6573 10.0732V25.9118H23.1319V10.0732C23.1319 8.15603 21.5723 6.59637 19.6551 6.59637ZM9.39382 2.22002H10.6812V5.41843H9.39382V2.22002ZM2.67731 2.22002H3.9647V5.41843H2.67731V2.22002ZM1.47459 11.5464V6.7421H11.9519V11.5464C11.9519 14.1135 9.86346 16.2022 7.29617 16.2022H6.13032C3.56322 16.2022 1.47459 14.1135 1.47459 11.5464ZM5.44486 17.6382C5.62055 17.6577 7.7566 17.6633 7.98162 17.6382V18.9812H5.44486V17.6382Z" fill="#363636"/>
</svg>
