<svg width="35" height="35" viewBox="0 0 35 35" fill="none" xmlns="http://www.w3.org/2000/svg">
<path d="M29.283 5.01852C22.5924 -1.67273 11.7069 -1.67273 5.01763 5.0169C-1.67297 11.7065 -1.67233 22.5923 5.01827 29.2833C11.7069 35.9726 22.5924 35.9726 29.2824 29.282C35.9723 22.5923 35.972 11.7072 29.283 5.01852ZM27.4108 27.4111C21.7532 33.0687 12.5471 33.0694 6.88917 27.4117C1.23023 21.7531 1.23088 12.5461 6.88917 6.88844C12.5468 1.23112 21.7525 1.23047 27.4115 6.88909C33.0691 12.5467 33.0685 21.7538 27.4108 27.4111ZM24.9077 23.9322C25.1205 24.4241 24.8941 24.9949 24.4025 25.2074C23.9106 25.4208 23.3398 25.1938 23.127 24.7022C22.1914 22.539 19.9803 21.1409 17.493 21.1409C14.9484 21.1409 12.7237 22.5377 11.8263 24.6996C11.6714 25.0729 11.3101 25.2983 10.9301 25.2983C10.8059 25.2983 10.6801 25.2743 10.5582 25.2239C10.0634 25.0182 9.82892 24.4503 10.0343 23.9558C11.2341 21.0672 14.1622 19.2008 17.493 19.2008C20.7542 19.2008 23.6648 21.0578 24.9077 23.9322ZM10.75 12.5063C10.75 11.399 11.6481 10.5009 12.7554 10.5009C13.8624 10.5009 14.7605 11.3986 14.7605 12.5063C14.7605 13.6143 13.8624 14.5121 12.7554 14.5121C11.6481 14.5121 10.75 13.6143 10.75 12.5063ZM19.8432 12.5063C19.8432 11.399 20.7419 10.5009 21.8492 10.5009C22.9562 10.5009 23.8543 11.3986 23.8543 12.5063C23.8543 13.6143 22.9566 14.5121 21.8492 14.5121C20.7419 14.5121 19.8432 13.6143 19.8432 12.5063Z" fill="#E25750"/>
</svg>
