<svg width="109" height="66" viewBox="0 0 109 66" fill="none" xmlns="http://www.w3.org/2000/svg">
<path fill-rule="evenodd" clip-rule="evenodd" d="M50.5 0.000109917L0.515625 66H58.9999L108.43 0L50.5 0.000109917Z" fill="#F36C21" fill-opacity="0.4"/>
<path d="M62.32 26.2921H56.3181L58.6463 20.1158C58.7496 19.8423 58.616 19.5351 58.348 19.4299C58.145 19.35 57.9146 19.4076 57.7709 19.5744L49.9721 28.5941C49.7822 28.8141 49.8029 29.1493 50.0185 29.3431C50.1132 29.4284 50.2353 29.4755 50.3619 29.4755H56.3831L54.0314 36.1946C53.9346 36.4705 54.0752 36.7741 54.3456 36.873C54.5512 36.9483 54.7809 36.8841 54.9206 36.7129L62.7194 27.1628C62.9034 26.9379 62.8739 26.6033 62.6537 26.4155C62.5599 26.3356 62.4419 26.2921 62.32 26.2921Z" fill="#363636"/>
<path d="M84.9553 17.787C80.7654 17.787 77.3569 21.1955 77.3569 25.3854V47.2403C77.3569 52.4989 73.0785 56.7773 67.8199 56.7773C62.8428 56.7773 58.7448 52.945 58.3202 48.0762H62.6661V41.1428C67.7313 39.2298 71.343 34.3316 71.343 28.6051V15.2126H68.5659V5H59.3071V15.2126H53.8873V5H44.6285V15.2126H42V28.6051C42 34.3316 45.6121 39.2294 50.6768 41.1428V48.0762H55.0883C55.5201 54.7237 61.0649 60 67.8199 60C74.8556 60 80.5791 54.276 80.5791 47.2403V25.3854C80.5791 22.9726 82.5421 21.0096 84.9549 21.0096C87.3681 21.0096 89.3311 22.9726 89.3311 25.3854V60H92.5537V25.3854C92.5537 21.1955 89.1452 17.787 84.9553 17.787ZM62.5297 8.22266H65.3433V15.2126H62.5297V8.22266ZM47.8511 8.22266H50.6647V15.2126H47.8511V8.22266ZM45.2227 28.6051V18.1055H68.1203V28.6051C68.1203 34.2154 63.5561 38.78 57.9454 38.78H55.3975C49.7872 38.78 45.2227 34.2154 45.2227 28.6051ZM53.8995 41.9183C54.2834 41.9611 58.9517 41.9733 59.4435 41.9183V44.8535H53.8995V41.9183Z" fill="#363636"/>
</svg>
