<svg width="21" height="26" viewBox="0 0 21 26" fill="none" xmlns="http://www.w3.org/2000/svg">
<path d="M20.5234 4.10619L10.8485 0.0757227C10.6062 -0.0252161 10.3338 -0.0252657 10.0914 0.0757227L0.416568 4.10619C0.0480836 4.25973 0 4.42859 0 4.82892V9.72852C0 16.4749 4.06389 22.5435 10.289 25.093C10.5281 25.1909 10.4118 25.1909 10.651 25.093C16.876 22.5435 20.94 16.475 20.94 9.72852V4.82892C20.94 4.42859 20.892 4.25973 20.5234 4.10619ZM19.1576 9.72852C19.1576 15.4637 15.801 20.7432 10.47 23.0999C5.2814 20.8062 1.78235 15.6191 1.78235 9.72852V5.49023L10.47 1.87099L19.1576 5.49023V9.72852ZM9.37881 13.0674L13.6221 8.80982C14.0076 8.423 14.6327 8.42295 15.0183 8.80982C15.4038 9.19668 15.4038 9.82386 15.0182 10.2107L10.0769 15.1687C9.69126 15.5556 9.0662 15.5555 8.68073 15.1687L5.92172 12.4004C5.53615 12.0135 5.53615 11.3863 5.92172 10.9995C6.30728 10.6127 6.93235 10.6126 7.31786 10.9995L9.37881 13.0674Z" fill="#363636"/>
</svg>
