<svg width="35" height="35" viewBox="0 0 35 35" fill="none" xmlns="http://www.w3.org/2000/svg">
<path d="M29.283 5.01852C22.5924 -1.67273 11.7069 -1.67273 5.01763 5.0169C-1.67297 11.7065 -1.67233 22.5923 5.01827 29.2833C11.7069 35.9726 22.5924 35.9726 29.2824 29.282C35.9723 22.5923 35.972 11.7072 29.283 5.01852ZM27.4108 27.4111C21.7532 33.0687 12.5471 33.0694 6.88917 27.4117C1.23023 21.7531 1.23088 12.5461 6.88917 6.88844C12.5468 1.23112 21.7525 1.23047 27.4115 6.88909C33.0691 12.5467 33.0685 21.7538 27.4108 27.4111ZM24.9077 20.5669C25.1205 20.075 24.8941 19.5041 24.4025 19.2917C23.9106 19.0782 23.3398 19.3053 23.127 19.7968C22.1914 21.9601 19.9803 23.3582 17.493 23.3582C14.9484 23.3582 12.7237 21.9614 11.8263 19.7994C11.6714 19.4262 11.3101 19.2008 10.9301 19.2008C10.8059 19.2008 10.6801 19.2247 10.5582 19.2752C10.0634 19.4809 9.82892 20.0488 10.0343 20.5432C11.2341 23.4319 14.1622 25.2983 17.493 25.2983C20.7542 25.2983 23.6648 23.4413 24.9077 20.5669ZM10.75 12.5063C10.75 11.399 11.6481 10.5009 12.7554 10.5009C13.8624 10.5009 14.7605 11.3986 14.7605 12.5063C14.7605 13.6143 13.8624 14.5121 12.7554 14.5121C11.6481 14.5121 10.75 13.6143 10.75 12.5063ZM19.8432 12.5063C19.8432 11.399 20.7419 10.5009 21.8492 10.5009C22.9563 10.5009 23.8543 11.3986 23.8543 12.5063C23.8543 13.6143 22.9566 14.5121 21.8492 14.5121C20.7419 14.5121 19.8432 13.6143 19.8432 12.5063Z" fill="#329138"/>
</svg>
