<svg width="109" height="66" viewBox="0 0 109 66" fill="none" xmlns="http://www.w3.org/2000/svg">
<path fill-rule="evenodd" clip-rule="evenodd" d="M50.5 0.000109917L0.515625 66H58.9999L108.43 0L50.5 0.000109917Z" fill="#F36C21" fill-opacity="0.4"/>
<path d="M86.853 18.9739L65.709 10.1655C65.1793 9.94489 64.5839 9.94478 64.0544 10.1655L42.9104 18.9739C42.1051 19.3094 42 19.6785 42 20.5534V31.2612C42 46.0052 50.8814 59.2677 64.4862 64.8395C65.0087 65.0535 64.7545 65.0535 65.2772 64.8395C78.8817 59.2679 87.7634 46.0053 87.7634 31.2612V20.5534C87.7634 19.6785 87.6584 19.3094 86.853 18.9739ZM83.8681 31.2612C83.8681 43.7951 76.5324 55.3334 64.8817 60.4837C53.5423 55.4709 45.8953 44.1348 45.8953 31.2612V21.9986L64.8817 14.089L83.8681 21.9986V31.2612ZM62.4969 38.5582L71.7705 29.2534C72.613 28.4081 73.9791 28.408 74.8217 29.2534C75.6644 30.0989 75.6642 31.4696 74.8216 32.315L64.0225 43.1505C63.1798 43.9961 61.8138 43.9958 60.9713 43.1505L54.9416 37.1004C54.099 36.255 54.099 34.8843 54.9416 34.0389C55.7843 33.1936 57.1503 33.1935 57.9928 34.0389L62.4969 38.5582Z" fill="#363636"/>
</svg>
