<svg width="38" height="38" viewBox="0 0 38 38" fill="none" xmlns="http://www.w3.org/2000/svg">
<path d="M28.7138 25.0095C27.4799 23.7901 25.9394 23.7901 24.7134 25.0095C23.7781 25.9378 22.8429 26.8661 21.9233 27.8101C21.6719 28.0697 21.4596 28.1248 21.1531 27.9517C20.548 27.6213 19.9035 27.3538 19.3219 26.992C16.6105 25.2848 14.3391 23.0899 12.3272 20.6197C11.329 19.3924 10.4409 18.0786 9.82004 16.5996C9.69429 16.3007 9.71787 16.104 9.96151 15.8601C10.8968 14.9554 11.8084 14.0271 12.728 13.0988C14.009 11.8086 14.009 10.2982 12.7201 9.0001C11.9892 8.2606 11.2583 7.53684 10.5274 6.79734C9.77289 6.04211 9.02625 5.27901 8.2639 4.53164C7.03 3.32799 5.48958 3.32799 4.26353 4.53951C3.32041 5.46782 2.41659 6.41972 1.45776 7.3323C0.569662 8.17407 0.121682 9.20465 0.0273709 10.4083C-0.121956 12.3672 0.357461 14.2159 1.03336 16.0175C2.41659 19.7464 4.52288 23.0585 7.07715 26.0951C10.5274 30.2017 14.6456 33.4508 19.4634 35.7951C21.6326 36.8493 23.8803 37.6596 26.3245 37.7934C28.0064 37.8878 29.4683 37.4629 30.6393 36.1492C31.4409 35.2523 32.3448 34.4341 33.1936 33.5766C34.451 32.3022 34.4589 30.7603 33.2093 29.5015C31.716 27.9989 30.2149 26.5042 28.7138 25.0095Z" fill="#363636"/>
<path d="M27.2125 18.7391L30.1125 18.2435C29.6567 15.5766 28.3992 13.1614 26.4894 11.2419C24.4696 9.22005 21.9153 7.9456 19.1017 7.55225L18.693 10.4709C20.87 10.7777 22.8506 11.7611 24.4146 13.3266C25.8921 14.8056 26.8588 16.678 27.2125 18.7391Z" fill="#363636"/>
<path d="M31.7475 6.12053C28.3995 2.76919 24.1633 0.652962 19.4871 0L19.0784 2.91866C23.118 3.48509 26.7805 5.3181 29.6727 8.20529C32.4156 10.9509 34.2154 14.4202 34.8677 18.2357L37.7678 17.7401C37.0054 13.3188 34.9227 9.30667 31.7475 6.12053Z" fill="#363636"/>
</svg>
