<svg width="53" height="52" viewBox="0 0 53 52" fill="none" xmlns="http://www.w3.org/2000/svg">
<path d="M40.4009 34.3259C38.7074 32.6522 36.5931 32.6522 34.9103 34.3259C33.6267 35.6 32.343 36.8741 31.0809 38.1698C30.7357 38.5262 30.4445 38.6017 30.0238 38.3642C29.1932 37.9107 28.3087 37.5436 27.5104 37.0469C23.7889 34.7038 20.6714 31.6913 17.9099 28.3008C16.54 26.6164 15.3211 24.8132 14.4689 22.7832C14.2963 22.3729 14.3287 22.1029 14.663 21.7682C15.9467 20.5265 17.198 19.2524 18.4601 17.9782C20.2184 16.2074 20.2184 14.1343 18.4493 12.3527C17.4461 11.3377 16.4429 10.3443 15.4397 9.32934C14.4042 8.29276 13.3794 7.24539 12.333 6.21962C10.6395 4.56758 8.52522 4.56758 6.84244 6.23041C5.548 7.50454 4.30749 8.81105 2.99147 10.0636C1.77253 11.2189 1.15767 12.6334 1.02823 14.2855C0.823275 16.9741 1.48128 19.5115 2.40897 21.9842C4.30749 27.1023 7.19842 31.6481 10.7042 35.816C15.4397 41.4523 21.0921 45.9117 27.7046 49.1294C30.6818 50.5763 33.7669 51.6885 37.1217 51.872C39.4301 52.0016 41.4365 51.4185 43.0438 49.6153C44.144 48.3844 45.3845 47.2614 46.5495 46.0845C48.2755 44.3353 48.2863 42.2189 46.5711 40.4913C44.5216 38.429 42.4613 36.3774 40.4009 34.3259Z" fill="white"/>
<path d="M38.3405 25.72L42.3209 25.0397C41.6952 21.3793 39.9693 18.0644 37.3481 15.4298C34.5758 12.6548 31.07 10.9056 27.2082 10.3657L26.6473 14.3716C29.6353 14.7928 32.3537 16.1425 34.5003 18.2912C36.5283 20.3211 37.8551 22.891 38.3405 25.72Z" fill="white"/>
<path d="M44.5649 8.40057C39.9696 3.80077 34.1554 0.896204 27.7371 0L27.1762 4.00592C32.7207 4.78335 37.7475 7.29921 41.7171 11.2619C45.4818 15.0303 47.952 19.7921 48.8473 25.0289L52.8277 24.3487C51.7814 18.2804 48.9228 12.7736 44.5649 8.40057Z" fill="white"/>
</svg>
