<svg width="50" height="50" viewBox="0 0 50 50" fill="none" xmlns="http://www.w3.org/2000/svg">
<path d="M42.6866 7.31568C32.9336 -2.43833 17.0655 -2.43833 7.31432 7.31332C-2.43874 17.065 -2.43779 32.9335 7.31527 42.687C17.0655 52.4382 32.9336 52.4382 42.6857 42.6851C52.4378 32.9335 52.4373 17.0659 42.6866 7.31568ZM39.9575 39.9579C31.7102 48.2052 18.2903 48.2061 10.0425 39.9588C1.79334 31.7101 1.79428 18.2888 10.0425 10.0415C18.2898 1.79469 31.7092 1.79375 39.9584 10.0425C48.2057 18.2898 48.2048 31.7111 39.9575 39.9579ZM36.3086 29.9809C36.6188 29.2638 36.2888 28.4318 35.5722 28.122C34.8551 27.8109 34.023 28.1418 33.7128 28.8584C32.349 32.0118 29.1258 34.0499 25.5 34.0499C21.7907 34.0499 18.5477 32.0137 17.2395 28.8622C17.0136 28.3181 16.487 27.9895 15.9331 27.9895C15.7521 27.9895 15.5687 28.0244 15.391 28.098C14.6697 28.3978 14.3279 29.2257 14.6272 29.9465C16.3763 34.1573 20.6446 36.878 25.5 36.878C30.2539 36.878 34.4968 34.171 36.3086 29.9809ZM15.6705 18.2308C15.6705 16.6166 16.9797 15.3075 18.5939 15.3075C20.2076 15.3075 21.5168 16.6162 21.5168 18.2308C21.5168 19.846 20.2076 21.1547 18.5939 21.1547C16.9797 21.1547 15.6705 19.846 15.6705 18.2308ZM28.9259 18.2308C28.9259 16.6166 30.236 15.3075 31.8502 15.3075C33.4639 15.3075 34.7731 16.6162 34.7731 18.2308C34.7731 19.846 33.4644 21.1547 31.8502 21.1547C30.236 21.1547 28.9259 19.846 28.9259 18.2308Z" fill="#329138"/>
</svg>
